<?xml version="1.0" standalone="no"?><!DOCTYPE svg PUBLIC "-//W3C//DTD SVG 1.1//EN" "http://www.w3.org/Graphics/SVG/1.1/DTD/svg11.dtd"><svg t="1533526643436" class="icon" style="" viewBox="0 0 1024 1024" version="1.1" xmlns="http://www.w3.org/2000/svg" p-id="1766" xmlns:xlink="http://www.w3.org/1999/xlink" width="32" height="32"><defs><style type="text/css"></style></defs><path d="M1024.096213 88.277333v697.877334a86.421333 86.421333 0 0 1-84.458666 88.256H688.885547l-228.266667 137.728a82.517333 82.517333 0 0 1-115.370667-32.32L11.424213 375.466667a90.538667 90.538667 0 0 1 30.933334-120.597334l341.653333-206.165333a81.258667 81.258667 0 0 1 85.333333 0.533333A84.202667 84.202667 0 0 1 545.120213 0h394.517334A86.442667 86.442667 0 0 1 1024.096213 88.277333z m-262.016 610.986667L452.29888 138.474667a39.317333 39.317333 0 0 0-54.976-15.402667L97.376213 304.085333a43.157333 43.157333 0 0 0-14.741333 57.472l309.76 560.768a39.338667 39.338667 0 0 0 54.997333 15.402667l300.032-181.013333a43.136 43.136 0 0 0 14.656-57.450667z m153.472-627.882667H569.205547a41.194667 41.194667 0 0 0-40.256 42.069334V134.4l304.32 550.890667a90.688 90.688 0 0 1-26.453334 117.653333h108.8a41.173333 41.173333 0 0 0 40.256-42.048V113.450667a41.194667 41.194667 0 0 0-40.32-42.069334z" fill="#cfcfd0" p-id="1767"></path></svg>