<?xml version="1.0" standalone="no"?><!DOCTYPE svg PUBLIC "-//W3C//DTD SVG 1.1//EN" "http://www.w3.org/Graphics/SVG/1.1/DTD/svg11.dtd"><svg t="1533005476449" class="icon" style="" viewBox="0 0 1152 1024" version="1.1" xmlns="http://www.w3.org/2000/svg" p-id="1373" xmlns:xlink="http://www.w3.org/1999/xlink" width="36" height="32"><defs><style type="text/css"></style></defs><path d="M758.03456 602.88H107.79456a92.16 92.16 0 1 1 0-181.888h650.24a92.16 92.16 0 1 1 0 181.888zM488.59456 1024H89.23456a91.008 91.008 0 0 1 0-181.952h399.36A89.6 89.6 0 0 1 576.91456 932.544 90.752 90.752 0 0 1 488.59456 1024z m576.64-842.048H88.59456A91.008 91.008 0 0 1 88.59456 0h976.64A89.152 89.152 0 0 1 1152.91456 91.008a90.368 90.368 0 0 1-87.68 90.88z" fill="#DEDEDF" p-id="1374"></path></svg>