<?xml version="1.0" standalone="no"?><!DOCTYPE svg PUBLIC "-//W3C//DTD SVG 1.1//EN" "http://www.w3.org/Graphics/SVG/1.1/DTD/svg11.dtd"><svg t="1533643985947" class="icon" style="" viewBox="0 0 1024 1024" version="1.1" xmlns="http://www.w3.org/2000/svg" p-id="2275" xmlns:xlink="http://www.w3.org/1999/xlink" width="32" height="32"><defs><style type="text/css"></style></defs><path d="M994.86408 389.48a98.848 98.848 0 0 0-68.88-29.336c-5.08-0.536-23.496-2.392-49.968-4.928a391.984 391.984 0 0 0-45.008-79.048c12.264-26.624 20.152-43.872 20.088-43.992 27.464-47.64 11.168-108.752-36.384-136.312L723.14408 42.704a99.856 99.856 0 0 0-50.056-13.504c-35.544 0-68.672 19.072-84.824 47.216 0 0-11.608 16.136-29.824 41.632a393.76 393.76 0 0 0-90.944 0.144c-17.008-24.088-28.176-39.744-28.328-39.744a100.128 100.128 0 0 0-86.552-49.936c-17.344 0-34.504 4.584-49.656 13.248l-91.84 52.76c-47.736 27.464-64.256 88.616-38.2 133.672 0 0 8.968 19.904 23.008 50.648a358.296 358.296 0 0 0-21.056 31.96 372.144 372.144 0 0 0-20.952 42.36c-32.472 2.952-53.8 5.008-54.04 5.136C45.11208 358.376 0.41608 403.024 0.24808 457.944L0.00008 563.816c-0.064 55.04 44.608 99.928 96.616 99.928h0.04s23.808 2.392 60.368 5.848a391.424 391.424 0 0 0 40.2 69.064c-14.728 31.84-24.352 53.008-24.28 53.128a99.16 99.16 0 0 0-10.04 75.6 99.192 99.192 0 0 0 46.4 60.744l91.6 53.16a100.136 100.136 0 0 0 50.056 13.496c35.512 0 68.648-19.072 84.768-47.216 0 0 14.144-19.576 35.632-49.784 26.56 2.888 53.336 3.168 79.928 0.68 20.032 28.392 33.376 47.072 33.496 47.072a100.224 100.224 0 0 0 86.584 49.968c17.368 0 34.56-4.6 49.664-13.288l91.808-52.704a99.256 99.256 0 0 0 46.712-60.624 99.088 99.088 0 0 0-9.04-74.312c-2.208-4.928-10.656-23.64-22.888-50.448a374.088 374.088 0 0 0 26.384-39.216 362.928 362.928 0 0 0 17.312-34.144c31.728-2.896 52.552-4.896 52.704-5.016 54.92-0.096 99.632-44.776 99.72-99.632L1024.00008 460.184a99.36 99.36 0 0 0-29.136-70.704z m-32.264 176.48c-0.032 21.312-17.432 38.656-41.816 38.808-0.064 0-29.696 2.864-73.272 6.776a30.576 30.576 0 0 0-25.64 19.104c-6.832 17.072-13.432 30.92-20.744 43.576-8.896 15.248-19.552 30.296-32.592 45.928a30.544 30.544 0 0 0-4.328 32.296c18.624 40.648 31.072 68.408 31.104 68.472 0.416 0.92 0.888 1.824 1.4 2.72a38.456 38.456 0 0 1 3.824 29.336 38.616 38.616 0 0 1-18.144 23.52l-91.84 52.704c-5.84 3.376-12.48 5.168-19.184 5.168-13.88 0-26.776-7.464-35.312-21.992-0.032-0.032-18.504-25.936-45.24-63.992a30.656 30.656 0 0 0-29.376-12.688 328.48 328.48 0 0 1-99.416-0.864 30.656 30.656 0 0 0-29.784 12.504c-27.168 38.296-46.024 64.416-47.728 67.008-10.264 17.76-35.008 24.48-52.936 14.056l-91.6-53.16c-8.936-5.192-15.328-13.544-17.984-23.544s-1.272-20.448 5.312-32.088c0.032-0.064 13.368-29.368 33.144-71.992a30.528 30.528 0 0 0-3.912-32.024 330.784 330.784 0 0 1-50.056-85.928 30.536 30.536 0 0 0-25.576-19.216c-46.376-4.328-78.08-7.52-81.112-7.672a38.856 38.856 0 0 1-38.664-38.856l0.256-105.816c0.056-21.336 17.416-38.68 38.68-38.68 0.984 0 2.192-0.064 3.176-0.152 0.056 0 30.368-2.952 74.888-6.928a30.544 30.544 0 0 0 25.92-19.784c7.152-19.168 14.888-35.88 23.728-51.072 7.24-12.504 16-25.104 27.552-39.696a30.528 30.528 0 0 0 3.832-31.712c-18.232-39.808-30.488-66.976-31.856-69.68a38.808 38.808 0 0 1 14.296-52.888l91.792-52.728c18.072-10.352 41.888-4.712 54.512 16.808 0.032 0.032 16.416 23.048 40.472 57.144a30.56 30.56 0 0 0 30.176 12.504c35.28-6.072 72.528-6.192 109.176-0.208a30.64 30.64 0 0 0 29.824-12.464c24.024-33.832 40.264-56.352 41.96-58.944 10.272-17.712 34.92-24.512 52.92-14.056l91.6 53.168a38.384 38.384 0 0 1 17.992 23.544c2.656 10.016 1.256 20.464-5.312 32.072 0 0.032-11.512 25.296-28.944 62.96a30.512 30.512 0 0 0 3.968 32.056c23.464 29.016 41.632 60.952 54.024 94.944a30.512 30.512 0 0 0 25.84 19.968c41.496 3.936 69.512 6.808 69.568 6.808 11.288 0.952 22.328 3.496 30.392 11.52a38.528 38.528 0 0 1 11.312 27.432l-0.272 105.92z" fill="#7a7b7c" p-id="2276"></path><path d="M603.66408 354.016a177.816 177.816 0 0 0-89.128-24.024c-63.24 0-122.216 33.936-153.944 88.584-49.184 84.832-20.224 193.856 64.56 243.072a177.76 177.76 0 0 0 89.12 24.032c63.24 0 122.224-33.936 153.952-88.584a176.6 176.6 0 0 0 18.056-134.904 176.568 176.568 0 0 0-82.616-108.176z m11.672 212.4a117.168 117.168 0 0 1-101.064 58.144c-20.448 0-40.648-5.44-58.44-15.792-55.632-32.296-74.648-103.832-42.352-159.504a117.16 117.16 0 0 1 101.056-58.144c20.448 0 40.656 5.432 58.448 15.792a115.944 115.944 0 0 1 54.224 70.976c8 30.112 3.8 61.576-11.872 88.528z" fill="#7a7b7c" p-id="2277"></path></svg>