<?xml version="1.0" standalone="no"?><!DOCTYPE svg PUBLIC "-//W3C//DTD SVG 1.1//EN" "http://www.w3.org/Graphics/SVG/1.1/DTD/svg11.dtd"><svg t="1533022792322" class="icon" style="" viewBox="0 0 1088 1024" version="1.1" xmlns="http://www.w3.org/2000/svg" p-id="1833" xmlns:xlink="http://www.w3.org/1999/xlink" width="34" height="32"><defs><style type="text/css"></style></defs><path d="M467.894619 582.506626a44.743791 44.743791 0 0 0-34.516638-5.880612 45.446907 45.446907 0 0 0-28.124668 20.901742l-32.599048 54.395665a266.609072 266.609072 0 0 1-217.96618 146.503955H46.663791a46.533542 46.533542 0 0 0 0 93.003164h108.024294A354.498661 354.498661 0 0 0 449.357906 700.758073l32.599048-54.395666a48.323294 48.323294 0 0 0 5.752773-35.155835 47.364498 47.364498 0 0 0-19.815108-28.699946z m97.157946-160.694128a44.743791 44.743791 0 0 0 23.650289 6.711569 45.510827 45.510827 0 0 0 38.351821-21.924458l19.815107-33.557843c56.249337-92.939245 123.365023-146.248276 205.821437-146.248275h79.899626l-53.053352 54.651344a46.789221 46.789221 0 0 0 0 65.581613 43.848915 43.848915 0 0 0 31.95985 13.614896 44.743791 44.743791 0 0 0 31.959851-13.614896l130.39619-134.231372a47.236659 47.236659 0 0 0-0.639197-65.453774L943.457194 13.557369a44.743791 44.743791 0 0 0-63.919701 0 47.939776 47.939776 0 0 0 0 65.517693l53.053352 54.715264h-79.899626c-114.416265 0-209.656619 69.352875-282.525078 190.22503l-19.815107 33.430003a48.323294 48.323294 0 0 0-5.752774 35.155836 46.661382 46.661382 0 0 0 20.454305 29.211303z m508.800819 389.910175l-130.39619-133.592174a44.743791 44.743791 0 0 0-63.919701 0 47.939776 47.939776 0 0 0 0 65.517693l53.053352 54.651344h-76.064444c-82.456414 0-149.5721-53.37295-205.18224-146.503954l-198.151073-327.652387a350.855238 350.855238 0 0 0-294.669821-190.22503H46.663791a46.533542 46.533542 0 0 0 0 92.939245h111.859476a265.905956 265.905956 0 0 1 217.96618 146.312196l197.511876 327.716306c72.868459 120.999994 167.469616 190.416789 281.885881 190.416789h76.703641l-53.053352 54.523505a46.725301 46.725301 0 0 0-0.639197 65.070255h0.639197a43.848915 43.848915 0 0 0 31.95985 13.614897 44.743791 44.743791 0 0 0 31.959851-13.614897l130.39619-133.847853a46.661382 46.661382 0 0 0 0-65.198095z" fill="#C2C3C5" p-id="1834"></path></svg>