<?xml version="1.0" standalone="no"?><!DOCTYPE svg PUBLIC "-//W3C//DTD SVG 1.1//EN" "http://www.w3.org/Graphics/SVG/1.1/DTD/svg11.dtd"><svg t="1533290336009" class="icon" style="" viewBox="0 0 1024 1024" version="1.1" xmlns="http://www.w3.org/2000/svg" p-id="1274" xmlns:xlink="http://www.w3.org/1999/xlink" width="128" height="128"><defs><style type="text/css"></style></defs><path d="M964.022857 574.000762a90.130286 90.130286 0 0 0-90.026667-90.002286h-133.668571a730.575238 730.575238 0 0 0 32.853333-138.24 140.848762 140.848762 0 0 0-139.154285-161.755428 30.031238 30.031238 0 0 0-30.049524 29.994666c0 72.478476-41.630476 181.881905-90.209524 206.256762-54.735238 27.428571-162.377143 57.819429-183.832381 63.744H29.988571A29.982476 29.982476 0 0 0 0 513.999238v419.998476a29.982476 29.982476 0 0 0 29.988571 30.000762h90.026667v30.000762A29.982476 29.982476 0 0 0 150.00381 1024h123.977142a90.209524 90.209524 0 0 0 82.285715-53.51619l210.468571 52.62019a29.769143 29.769143 0 0 0 7.253333 0.896h179.992381a89.984 89.984 0 0 0 83.687619-123.160381 89.990095 89.990095 0 0 0 59.977143-119.996952 89.941333 89.941333 0 0 0 43.398096-146.846477 89.703619 89.703619 0 0 0 22.979047-59.995428zM120.015238 904.003048H59.977143V544h60.038095v360.003048z m184.015238 29.994666a30.055619 30.055619 0 0 1-30.049524 30.000762H179.992381V544h124.038095v389.997714z m389.973334-270.019047h179.99238a30.000762 30.000762 0 0 1 0 60.001523h-179.99238a30.000762 30.000762 0 0 0 0 60.001524h120.015238a30.000762 30.000762 0 0 1 0 60.001524h-120.015238a30.000762 30.000762 0 0 0 0 60.001524h59.977142a30.000762 30.000762 0 1 1 0 59.995428H577.706667l-213.699048-53.418666V536.752762c40.472381-11.623619 126.354286-37.64419 176.64-62.860191 68.87619-34.541714 111.055238-143.798857 121.051429-224.987428a80.78019 80.78019 0 0 1 52.114285 88.003047c-14.201905 95.311238-32 134.430476-46.628571 163.675429a29.970286 29.970286 0 0 0 26.819048 43.416381h179.99238a30.000762 30.000762 0 0 1 0 60.001524h-179.99238a30.000762 30.000762 0 0 0 0 59.995428zM664.015238 0a29.982476 29.982476 0 0 0-29.988571 30.000762v64a29.988571 29.988571 0 1 0 59.977143 0v-64A29.982476 29.982476 0 0 0 664.015238 0zM494.32381 151.868952l-42.48381-42.428952a30.000762 30.000762 0 0 0-42.422857 42.428952l42.422857 42.422858a30.019048 30.019048 0 0 0 42.48381-42.422858zM393.99619 334.019048H334.019048a30.000762 30.000762 0 0 0 0 60.001523h59.977142a30.000762 30.000762 0 0 0 0-60.001523z m600.015239 0h-60.038096a30.000762 30.000762 0 0 0 0 60.001523h60.038096a30.000762 30.000762 0 0 0 0-60.001523zM918.552381 109.458286a29.994667 29.994667 0 0 0-42.422857 0l-42.422857 42.428952a29.994667 29.994667 0 0 0 42.422857 42.422857l42.422857-42.422857a30.025143 30.025143 0 0 0 0-42.447238z" fill="#4D80DE" p-id="1275"></path></svg>