<?xml version="1.0" standalone="no"?><!DOCTYPE svg PUBLIC "-//W3C//DTD SVG 1.1//EN" "http://www.w3.org/Graphics/SVG/1.1/DTD/svg11.dtd"><svg t="1532682913127" class="icon" style="" viewBox="0 0 1024 1024" version="1.1" xmlns="http://www.w3.org/2000/svg" p-id="1034" data-spm-anchor-id="a313x.7781069.0.i1" xmlns:xlink="http://www.w3.org/1999/xlink" width="32" height="32"><defs><style type="text/css"></style></defs><path d="M344.500344 520.998331l380.946097-402.160039c4.0216-3.92106 6.434561-9.450761 6.434561-15.583702 0-12.165341-9.852921-22.018262-22.018262-22.018262-6.032401 0-11.562101 2.5135-15.583702 6.434561L298.654099 505.414629c-4.0216 4.0216-6.434561 9.450761-6.434561 15.583702 0 6.032401 2.41296 11.562101 6.434561 15.583702l395.624939 417.643201c4.0216 4.0216 9.450761 6.434561 15.583702 6.434561 12.165341 0 22.018262-9.852921 22.018262-22.018262 0-6.032401-2.41296-11.562101-6.434561-15.583702L344.500344 520.998331z" p-id="1035" fill="#c3c4c4"></path></svg>